<svg xmlns="http://www.w3.org/2000/svg" width="1280" height="720" viewBox="0 0 1280 720">
  <rect x="0" y="0" width="1280" height="720" fill="#FFFFFF" />
  <g id="header">
    <path fill="#F8FAFC" stroke="#E2E8F0" d="M70,44 H134 A14,14 0 0 1 148,58 V58 A14,14 0 0 1 134,72 H70 A14,14 0 0 1 56,58 V58 A14,14 0 0 1 70,44 Z" />
    <text x="102" y="64" text-anchor="middle" font-family="Arial, Microsoft YaHei, PingFang SC, sans-serif" font-size="12" font-weight="700" fill="#475569">PROBLEM</text>
    <text x="56" y="124" font-family="Georgia, Microsoft YaHei, serif" font-size="42" font-weight="700" fill="#0F172A">Outbound teams are late to the signal.</text>
    <text x="56" y="160" font-family="Arial, Microsoft YaHei, PingFang SC, sans-serif" font-size="18" fill="#475569">The issue is not finding more companies. It is knowing when a company has a credible reason to buy.</text>
  </g>
  <g id="contrast-static">
    <path fill="#F8FAFC" stroke="#E2E8F0" d="M86,218 H558 A14,14 0 0 1 572,232 V490 A14,14 0 0 1 558,504 H86 A14,14 0 0 1 72,490 V232 A14,14 0 0 1 86,218 Z" />
    <path fill="#0F172A" d="M86,218 H558 A14,14 0 0 1 572,232 V258 A14,14 0 0 1 558,272 H86 A14,14 0 0 1 72,258 V232 A14,14 0 0 1 86,218 Z" />
    <text x="96" y="253" font-family="Arial, Microsoft YaHei, PingFang SC, sans-serif" font-size="18" font-weight="800" fill="#FFFFFF">Static lead lists</text>
    <text x="96" y="314" font-family="Georgia, Microsoft YaHei, serif" font-size="30" font-weight="700" fill="#0F172A">Who exists</text>
    <g id="static-items">
      <circle cx="106" cy="362" r="5" fill="#94A3B8" />
      <text x="124" y="368" font-family="Arial, Microsoft YaHei, PingFang SC, sans-serif" font-size="20" fill="#475569">Firmographics and old account lists</text>
      <circle cx="106" cy="412" r="5" fill="#94A3B8" />
      <text x="124" y="418" font-family="Arial, Microsoft YaHei, PingFang SC, sans-serif" font-size="20" fill="#475569">Generic intent labels without evidence</text>
      <circle cx="106" cy="462" r="5" fill="#94A3B8" />
      <text x="124" y="468" font-family="Arial, Microsoft YaHei, PingFang SC, sans-serif" font-size="20" fill="#475569">Timing often visible after demand peaks</text>
    </g>
  </g>
  <g id="contrast-hiring">
    <path fill="#FFFFFF" stroke="#10B981" stroke-width="2" d="M722,218 H1194 A14,14 0 0 1 1208,232 V490 A14,14 0 0 1 1194,504 H722 A14,14 0 0 1 708,490 V232 A14,14 0 0 1 722,218 Z" />
    <path fill="#10B981" d="M722,218 H1194 A14,14 0 0 1 1208,232 V258 A14,14 0 0 1 1194,272 H722 A14,14 0 0 1 708,258 V232 A14,14 0 0 1 722,218 Z" />
    <text x="732" y="253" font-family="Arial, Microsoft YaHei, PingFang SC, sans-serif" font-size="18" font-weight="800" fill="#FFFFFF">Fresh hiring behavior</text>
    <text x="732" y="314" font-family="Georgia, Microsoft YaHei, serif" font-size="30" font-weight="700" fill="#0F172A">Why now</text>
    <g id="hiring-items">
      <circle cx="742" cy="362" r="5" fill="#10B981" />
      <text x="760" y="368" font-family="Arial, Microsoft YaHei, PingFang SC, sans-serif" font-size="20" fill="#0F172A">Public evidence of active company change</text>
      <circle cx="742" cy="412" r="5" fill="#10B981" />
      <text x="760" y="418" font-family="Arial, Microsoft YaHei, PingFang SC, sans-serif" font-size="20" fill="#0F172A">Roles imply budget, bottlenecks, and projects</text>
      <circle cx="742" cy="462" r="5" fill="#10B981" />
      <text x="760" y="468" font-family="Arial, Microsoft YaHei, PingFang SC, sans-serif" font-size="20" fill="#0F172A">Outreach can reference actual evidence</text>
    </g>
  </g>
  <g id="center-divider">
    <line x1="640" y1="222" x2="640" y2="504" stroke="#E2E8F0" stroke-width="2" stroke-dasharray="8,8" />
    <circle cx="640" cy="360" r="38" fill="#FFFFFF" stroke="#E2E8F0" stroke-width="2" />
    <text x="640" y="368" text-anchor="middle" font-family="Arial, Microsoft YaHei, PingFang SC, sans-serif" font-size="18" font-weight="800" fill="#475569">VS</text>
  </g>
  <g id="takeaway">
    <path fill="#0F172A" d="M164,558 H1116 A14,14 0 0 1 1130,572 V614 A14,14 0 0 1 1116,628 H164 A14,14 0 0 1 150,614 V572 A14,14 0 0 1 164,558 Z" />
    <text x="640" y="588" text-anchor="middle" font-family="Arial, Microsoft YaHei, PingFang SC, sans-serif" font-size="17" font-weight="700" fill="#FFFFFF">Buying intent is not just a list problem; it is a timing and evidence problem.</text>
    <text x="640" y="615" text-anchor="middle" font-family="Arial, Microsoft YaHei, PingFang SC, sans-serif" font-size="15" fill="#E2E8F0">SignalScout uses hiring activity as the public trail that makes timing defensible.</text>
  </g>
  <g id="footer">
    <text x="56" y="674" font-family="Arial, Microsoft YaHei, PingFang SC, sans-serif" font-size="12" font-weight="700" fill="#94A3B8">Timing and evidence beat static lead lists</text>
    <text x="1224" y="674" text-anchor="end" font-family="Arial, Microsoft YaHei, PingFang SC, sans-serif" font-size="12" font-weight="700" fill="#94A3B8">02 / 08</text>
  </g>
</svg>