<svg xmlns="http://www.w3.org/2000/svg" width="1280" height="720" viewBox="0 0 1280 720">
  <rect x="0" y="0" width="1280" height="720" fill="#FFFFFF" />
  <g id="top-bar">
    <circle cx="88" cy="82" r="28" fill="#0F172A" />
    <path d="M72 88 C82 68 100 68 106 88" fill="none" stroke="#10B981" stroke-width="4" stroke-linecap="round" />
    <circle cx="90" cy="83" r="6" fill="#38BDF8" />
    <text x="134" y="88" font-family="Arial, Microsoft YaHei, PingFang SC, sans-serif" font-size="18" font-weight="800" fill="#0F172A">SignalScout AI</text>
    <path fill="#10B981" fill-opacity="0.12" stroke="#10B981" d="M1054,58 H1184 A16,16 0 0 1 1200,74 V74 A16,16 0 0 1 1184,90 H1054 A16,16 0 0 1 1038,74 V74 A16,16 0 0 1 1054,58 Z" />
    <text x="1119" y="79" text-anchor="middle" font-family="Arial, Microsoft YaHei, PingFang SC, sans-serif" font-size="12" font-weight="800" fill="#0F172A">LIVE WEBSITE DEMO</text>
  </g>
  <g id="hero">
    <text x="88" y="246" font-family="Georgia, Microsoft YaHei, serif" font-size="70" font-weight="700" fill="#0F172A">Now we run it live.</text>
    <path fill="#10B981" d="M96,276 H536 A4,4 0 0 1 540,280 V280 A4,4 0 0 1 536,284 H96 A4,4 0 0 1 92,280 V280 A4,4 0 0 1 96,276 Z" />
    <text font-size="26" fill="#0F172A" font-weight="700" font-family="Arial, Microsoft YaHei, PingFang SC, sans-serif" x="92" y="336">Watch public hiring signals become</text><text font-size="26" fill="#0F172A" font-weight="700" font-family="Arial, Microsoft YaHei, PingFang SC, sans-serif" x="92" y="370">a sales-ready account.</text><text font-size="19" fill="#475569" font-family="Arial, Microsoft YaHei, PingFang SC, sans-serif" x="92" y="416">Job data -&gt; hiring signal -&gt; lead score -&gt; outreach draft -&gt; Slack digest</text></g>
  <g id="demo-orbit">
    <circle cx="974" cy="346" r="154" fill="#F8FAFC" stroke="#E2E8F0" stroke-width="2" />
    <circle cx="974" cy="346" r="94" fill="#FFFFFF" stroke="#E2E8F0" stroke-width="2" />
    <circle cx="974" cy="346" r="42" fill="#0F172A" />
    
  <g transform="translate(950.0, 322.0) scale(2.0)" fill="none" stroke="#FFFFFF" stroke-width="2">
    <path d="M10 14l11 -11" />
    <path d="M21 3l-6.5 18a.55 .55 0 0 1 -1 0l-3.5 -7l-7 -3.5a.55 .55 0 0 1 0 -1l18 -6.5" />
  </g>
    <g id="node-data">
      <circle cx="866" cy="238" r="31" fill="#10B981" />
      
  <g transform="translate(848.0, 220.0) scale(1.5)" fill="none" stroke="#FFFFFF" stroke-width="2">
    <path d="M4 6a8 3 0 1 0 16 0a8 3 0 1 0 -16 0" />
    <path d="M4 6v6a8 3 0 0 0 16 0v-6" />
    <path d="M4 12v6a8 3 0 0 0 16 0v-6" />
  </g>
      <text x="866" y="194" text-anchor="middle" font-family="Arial, Microsoft YaHei, PingFang SC, sans-serif" font-size="14" font-weight="800" fill="#0F172A">Data</text>
    </g>
    <g id="node-score">
      <circle cx="1112" cy="276" r="31" fill="#38BDF8" />
      
  <g transform="translate(1094.0, 258.0) scale(1.5)" fill="none" stroke="#FFFFFF" stroke-width="2">
    <path d="M3 13a1 1 0 0 1 1 -1h4a1 1 0 0 1 1 1v6a1 1 0 0 1 -1 1h-4a1 1 0 0 1 -1 -1l0 -6" />
    <path d="M15 9a1 1 0 0 1 1 -1h4a1 1 0 0 1 1 1v10a1 1 0 0 1 -1 1h-4a1 1 0 0 1 -1 -1l0 -10" />
    <path d="M9 5a1 1 0 0 1 1 -1h4a1 1 0 0 1 1 1v14a1 1 0 0 1 -1 1h-4a1 1 0 0 1 -1 -1l0 -14" />
    <path d="M4 20h14" />
  </g>
      <text x="1112" y="232" text-anchor="middle" font-family="Arial, Microsoft YaHei, PingFang SC, sans-serif" font-size="14" font-weight="800" fill="#0F172A">Score</text>
    </g>
    <g id="node-evidence">
      <circle cx="1090" cy="458" r="31" fill="#0F172A" />
      
  <g transform="translate(1072.0, 440.0) scale(1.5)" fill="none" stroke="#FFFFFF" stroke-width="2">
    <path d="M8 9h8" />
    <path d="M8 13h6" />
    <path d="M12 21l-1 -1l-2 -2h-3a3 3 0 0 1 -3 -3v-8a3 3 0 0 1 3 -3h12a3 3 0 0 1 3 3v6" />
    <path d="M15 19l2 2l4 -4" />
  </g>
      <text x="1090" y="515" text-anchor="middle" font-family="Arial, Microsoft YaHei, PingFang SC, sans-serif" font-size="14" font-weight="800" fill="#0F172A">Evidence</text>
    </g>
    <g id="node-team">
      <circle cx="828" cy="448" r="31" fill="#F59E0B" />
      
  <g transform="translate(810.0, 430.0) scale(1.5)" fill="none" stroke="#FFFFFF" stroke-width="2">
    <path d="M5 7a4 4 0 1 0 8 0a4 4 0 1 0 -8 0" />
    <path d="M3 21v-2a4 4 0 0 1 4 -4h4a4 4 0 0 1 4 4v2" />
    <path d="M16 3.13a4 4 0 0 1 0 7.75" />
    <path d="M21 21v-2a4 4 0 0 0 -3 -3.85" />
  </g>
      <text x="828" y="505" text-anchor="middle" font-family="Arial, Microsoft YaHei, PingFang SC, sans-serif" font-size="14" font-weight="800" fill="#0F172A">Team</text>
    </g>
  </g>
  <g id="bottom-prompt">
    <path fill="#0F172A" d="M120,558 H640 A32,32 0 0 1 672,590 V590 A32,32 0 0 1 640,622 H120 A32,32 0 0 1 88,590 V590 A32,32 0 0 1 120,558 Z" />
    <text x="380" y="598" text-anchor="middle" font-family="Arial, Microsoft YaHei, PingFang SC, sans-serif" font-size="18" font-weight="800" fill="#FFFFFF">The next 8 to 10 minutes are product, not slides.</text>
  </g>
  <g id="footer">
    <text x="56" y="684" font-family="Arial, Microsoft YaHei, PingFang SC, sans-serif" font-size="12" font-weight="700" fill="#94A3B8">Live walkthrough: data -&gt; score -&gt; outreach -&gt; digest</text>
    <text x="1224" y="684" text-anchor="end" font-family="Arial, Microsoft YaHei, PingFang SC, sans-serif" font-size="12" font-weight="700" fill="#94A3B8">08 / 08</text>
  </g>
</svg>